# xmcd
# 
# Track frame offsets:
#     150
#     11031
#     25648
#     37755
#     51611
#     61507
#     72573
#     86027
#     95316
#     108473
#     122365
#     133789
#     145566
#     157420
#     172233
#     188152
#     199537
# 
# Disc length: 2813
# 
# Revision: 1
# Processed by: cddbd v1.5.2PL0 Copyright (c) Steve Scherf et al.
# Submitted via: fre:ac v1.0.31
# 
DISCID=e90afb11
DTITLE=Country - The Only Classic Country Collection You'll Ever Need Disc 2
DYEAR=2010
DGENRE=Country
TTITLE0=Roger Miller - King Of The Road
TTITLE1=Jeannie C. Riley - Harper Valley P.T.A.
TTITLE2=Tammy Wynette - Stand By Your Man
TTITLE3=Glen Campbell - Wichita Lineman
TTITLE4=Merle Haggard - Mama Tried
TTITLE5=Conway Twitty - Hello Darlin'
TTITLE6=Loretta Lynn - Coal Miner's Daughter
TTITLE7=Charley Pride - Kiss An Angel Good Mornin'
TTITLE8=Charlie Rich - Behind Closed Doors
TTITLE9=Dolly Parton - I Will Always Love You
TTITLE10=Freddy Fender - Before The Next Teardrop Falls
TTITLE11=Crystal Gayle - Don't Make My Brown Eyes Blue
TTITLE12=Johnny Paycheck - Take This Job And Shove It
TTITLE13=Waylon Jennings - Luckenbach, Texas (Back To The Basics Of Love)
TTITLE14=Kenny Rogers - The Gambler
TTITLE15=Waylon and Willie - Mammas Don't Let Your Babies Grow Up To Be Cowboys
TTITLE16=Willie Nelson - On The Road Again
EXTD=YEAR: 2010
EXTT0=
EXTT1=
EXTT2=
EXTT3=
EXTT4=
EXTT5=
EXTT6=
EXTT7=
EXTT8=
EXTT9=
EXTT10=
EXTT11=
EXTT12=
EXTT13=
EXTT14=
EXTT15=
EXTT16=
PLAYORDER=
